Coordinates
version=1
nRows=16
nColumns=22
inDegrees=yes

Units are S.I. units (second, meters, Newtons, ...)
If the header above contains a line with 'inDegrees', this indicates whether rotational values are in degrees (yes) or radians (no).

endheader
time	pelvis_tilt	pelvis_list	pelvis_rotation	pelvis_tx	pelvis_ty	pelvis_tz	hip_flexion_r	hip_adduction_r	hip_rotation_r	knee_angle_r	ankle_angle_r	subtalar_angle_r	hip_flexion_l	hip_adduction_l	hip_rotation_l	knee_angle_l	ankle_angle_l	subtalar_angle_l	lumbar_extension	lumbar_bending	lumbar_rotation
      2.72000000	      4.21896899	      4.56207111	    -48.58128365	     -0.05523273	      0.91854253	     -0.29508492	     10.74501846	     -7.80253164	     -2.60048044	    -63.90815558	      0.93867596	      3.29395043	     17.92847429	      5.72817468	      0.91986442	    -27.03563238	      9.35411013	      1.96269925	     -6.63212502	    -10.47193990	     -0.56813869
      2.73000000	      4.47038499	      4.52109882	    -49.15250791	     -0.04914660	      0.91942910	     -0.28974533	     12.43978271	     -8.29072830	     -2.81643538	    -65.54540587	      2.32658907	      2.57159232	     17.01380220	      5.92816496	      0.47963835	    -26.78263230	      9.73433306	      1.50254938	     -6.97439909	    -10.54601801	     -0.86135155
      2.74000000	      4.67408990	      4.40037830	    -49.68171600	     -0.04323071	      0.92040783	     -0.28431816	     14.02295115	     -8.58130418	     -2.98062684	    -66.83398577	      3.55836386	      1.88309874	     16.06842071	      6.03593231	      0.07412855	    -26.52201077	     10.12322895	      1.10927405	     -7.34618285	    -10.53739351	     -1.19562926
      2.75000000	      4.81411632	      4.20756362	    -50.16578084	     -0.03745792	      0.92148130	     -0.27877306	     15.49043814	     -8.65650734	     -3.09567456	    -67.76111317	      4.64624338	      1.33978157	     15.08825094	      6.04253233	     -0.28647583	    -26.22442331	     10.48621223	      0.80329353	     -7.71549239	    -10.43737047	     -1.55184094
      2.76000000	      4.90364939	      3.94109011	    -50.58259429	     -0.03187908	      0.92261151	     -0.27322997	     16.83914941	     -8.54288865	     -3.20355812	    -68.35162267	      5.54337259	      0.88515760	     14.11202686	      5.96262118	     -0.58271502	    -25.97362834	     10.88805688	      0.53735947	     -8.12608926	    -10.25698912	     -1.97246423
      2.77000000	      4.94360368	      3.64270426	    -50.93895789	     -0.02638979	      0.92377540	     -0.26761874	     18.08384657	     -8.30552727	     -3.34225911	    -68.59655992	      6.25615281	      0.61650838	     13.12795301	      5.81542548	     -0.87043194	    -25.69359999	     11.28887358	      0.34203224	     -8.51503704	    -10.02105291	     -2.46133104
      2.78000000	      4.93628497	      3.38094896	    -51.25004582	     -0.02105821	      0.92481205	     -0.26202163	     19.31986380	     -7.98552426	     -3.46010313	    -68.56261437	      6.82723854	      0.61743982	     12.21257370	      5.66122939	     -1.07876521	    -25.41243166	     11.68392800	      0.29690983	     -8.83683906	     -9.78701355	     -2.99914187
      2.79000000	      4.93575380	      3.03046478	    -51.54152505	     -0.01584264	      0.92596472	     -0.25633033	     20.35931561	     -7.55939934	     -3.58928219	    -68.19242992	      7.31455647	      0.70185332	     11.21565808	      5.43517970	     -1.35506356	    -25.12788834	     12.02331227	      0.16795481	     -9.23436864	     -9.50242639	     -3.56263631
      2.80000000	      4.91541664	      2.71641700	    -51.80039078	     -0.01076621	      0.92697374	     -0.25063547	     21.36919744	     -7.09175329	     -3.69275087	    -67.56761401	      7.72923792	      1.00685443	     10.26274898	      5.22542146	     -1.56233102	    -24.83456697	     12.34449109	      0.09690263	     -9.58996561	     -9.24197580	     -4.17964629
      2.81000000	      4.87379013	      2.43534808	    -52.03454838	     -0.00574587	      0.92783662	     -0.24488538	     22.33215270	     -6.61028962	     -3.80650438	    -66.68416363	      8.09386960	      1.50018936	      9.34379761	      5.02073797	     -1.76149003	    -24.52674255	     12.64064810	      0.06203962	     -9.88785077	     -8.99274544	     -4.82108016
      2.82000000	      4.81133939	      2.19279197	    -52.24544704	     -0.00080885	      0.92850734	     -0.23911628	     23.25914395	     -6.11899670	     -3.91971672	    -65.56258337	      8.43670493	      2.02312023	      8.49550120	      4.82320661	     -1.97074239	    -24.26020918	     12.93965176	      0.04057377	    -10.13597407	     -8.75427958	     -5.51313479
      2.83000000	      4.73011440	      2.00210449	    -52.44865917	      0.00408336	      0.92898933	     -0.23328287	     24.15739203	     -5.64390898	     -4.03488429	    -64.21175775	      8.72834672	      2.61289459	      7.68688462	      4.65207040	     -2.14776691	    -23.96479834	     13.22058014	     -0.00698997	    -10.31420231	     -8.53933539	     -6.19648908
      2.84000000	      4.61644699	      1.85825926	    -52.63324026	      0.00889243	      0.92923548	     -0.22741252	     25.02962014	     -5.17735469	     -4.17280764	    -62.64311757	      9.00206637	      3.04819728	      6.97139428	      4.47712612	     -2.35641917	    -23.72796573	     13.55441861	     -0.06431175	    -10.43128474	     -8.33181778	     -6.91335950
      2.85000000	      4.49036543	      1.75373898	    -52.82709828	      0.01362841	      0.92931166	     -0.22146759	     25.85562597	     -4.72941167	     -4.30469391	    -60.86038186	      9.17925719	      3.48033262	      6.28752165	      4.32269783	     -2.54654930	    -23.47596449	     13.89663429	     -0.15936948	    -10.50092677	     -8.14555287	     -7.60166436
      2.86000000	      4.36093162	      1.68402108	    -53.03955173	      0.01827462	      0.92924088	     -0.21543469	     26.62175574	     -4.30103077	     -4.41570531	    -58.86409210	      9.24484070	      3.91601468	      5.62387816	      4.19050113	     -2.73023530	    -23.20681995	     14.25094797	     -0.30704959	    -10.53568326	     -7.98476033	     -8.26450003
      2.87000000	      4.19551097	      1.65653042	    -53.25425475	      0.02286782	      0.92896539	     -0.20930441	     27.34254736	     -3.89631508	     -4.57547009	    -56.65883494	      9.27870245	      4.16985429	      5.02693198	      4.04589869	     -2.95823320	    -22.95793187	     14.66600839	     -0.40757089	    -10.50179760	     -7.82521766	     -8.86885769
